<svg xmlns="http://www.w3.org/2000/svg" width="1429.3" height="1429.3" version="1.0" viewBox="0 0 1072 1072"><path d="M483 1h-8l-13 1-10 2-21 2-28 6a241 241 0 0 1-20 5l-4 1a226 226 0 0 0-33 12l-2 1-1 1-14 6a173 173 0 0 1-15 7l-1 1-6 3-6 3-1 1-1 1a276 276 0 0 0-117 138c-4 11-9 31-11 43l-1 6a291 291 0 0 0-4 77 150 150 0 0 0 4 27 275 275 0 0 0 17 66l3 7 12 25 6 11a430 430 0 0 0 37 54l2 3a260 260 0 0 0 25 37l11 13 29 28 7 6 3 2 2 2a501 501 0 0 0 158 88l13 5a434 434 0 0 1 50 20 4491 4491 0 0 1 68 36l33 25c5 5 7 11 7 29a118 118 0 0 1-50 105l-3 2-9 5c-12 5-29 11-41 13l-10 2a267 267 0 0 1-20 3l-61 1-12-1-10-2h-7a108 108 0 0 1-12-3l-5-1-4-1a192 192 0 0 1-61-24c-10-7-21-16-19-16l-1-5-2-5v-3l-2-5-1-5-3-21a771 771 0 0 1-1-83c-3-11-11-23-18-27l-4-3-2-1-1-1-2-1-2-1-5-2-5-1v-9a45 45 0 0 0-6-26l-2-3-12-13a52 52 0 0 0-45-9 435 435 0 0 1-18 4l-6 1-3 2h-3l-1 1-1 1a51 51 0 0 0-27 36c-2 5-2 12-2 30l1 29 1 9a317 317 0 0 0 16 67l4 10a254 254 0 0 0 46 74 152 152 0 0 0 16 27l3 4 2 3 2 3a243 243 0 0 0 126 84l3 1 3 1a119 119 0 0 0 11 4 248 248 0 0 0 38 9l6 1h5l4 1 14 2 17 3h8l13 1 16 2a987 987 0 0 0 146-8l5-1a461 461 0 0 0 120-45l5-3 6-4 4-3a154 154 0 0 0 17-13 345 345 0 0 0 73-84 183 183 0 0 0 17-41l3-10 3-10a228 228 0 0 1 5-20 121 121 0 0 0 3-22 423 423 0 0 0-1-92l-1-2a59 59 0 0 0-2-9l-1-5v-5l-2-5-1-3-5-17-4-9a215 215 0 0 0-12-27c0-4-31-50-37-55l-5-9a256 256 0 0 0-32-47l-5-6a401 401 0 0 0-83-73l-4-3a451 451 0 0 0-64-39l-20-9a362 362 0 0 0-37-17l-4-2-11-4-8-4-2-1a222 222 0 0 1-20-7l-2-1-3-1a285 285 0 0 1-30-10l-4-2-5-2-11-4a315 315 0 0 1-34-14l-13-6a311 311 0 0 1-60-37c-8-6-8-6-8-26a115 115 0 0 1 12-55c6-13 22-28 38-37a190 190 0 0 1 52-19l6-1c21-4 71-5 95-2l10 1a93 93 0 0 1 12 2l21 4c24 6 47 16 66 30 6 4 7 6 8 10l2 6 1 4 1 5 1 5 1 6 1 8 1 19c1 18 3 26 7 34 6 11 20 23 30 26l3 1 1 10 2 11 1 3a55 55 0 0 0 20 28l1 1c0 1 13 7 17 7 8 2 15 2 23 0l10-1a54 54 0 0 0 47-53 343 343 0 0 0-17-81l-1-3a314 314 0 0 0-30-57l-14-17-8-13a249 249 0 0 0-47-62l-9-8a169 169 0 0 1-10-8l-3-1-14-10-23-12-19-9-6-2a180 180 0 0 0-27-9 515 515 0 0 0-31-6l-4-1-18-3a571 571 0 0 0-111-4z"/></svg>