<?xml version="1.0" standalone="no"?>
<!DOCTYPE svg PUBLIC "-//W3C//DTD SVG 20010904//EN"
 "http://www.w3.org/TR/2001/REC-SVG-20010904/DTD/svg10.dtd">
<svg version="1.0" xmlns="http://www.w3.org/2000/svg"
 width="1072.000000pt" height="1072.000000pt" viewBox="0 0 1072.000000 1072.000000"
 preserveAspectRatio="xMidYMid meet">
<metadata>
Created by potrace 1.14, written by Peter Selinger 2001-2017
</metadata>
<g transform="translate(0.000000,1072.000000) scale(0.100000,-0.100000)"
fill="#000000" stroke="none">
<path d="M4827 10714 c-2 -2 -39 -6 -82 -9 -43 -2 -101 -7 -129 -10 -28 -4
-71 -8 -96 -11 -93 -9 -117 -13 -210 -29 -191 -33 -193 -33 -285 -57 -44 -11
-90 -22 -102 -24 -12 -2 -34 -9 -48 -14 -14 -5 -25 -7 -25 -4 0 2 -8 0 -18 -5
-11 -6 -30 -12 -43 -15 -13 -3 -69 -21 -124 -40 -154 -54 -174 -62 -181 -69
-4 -4 -16 -7 -26 -7 -10 0 -18 -4 -18 -8 0 -5 -6 -9 -13 -9 -7 0 -70 -27 -141
-61 -71 -34 -132 -62 -137 -62 -5 0 -9 -4 -9 -10 0 -5 -5 -10 -10 -10 -6 0
-35 -15 -65 -34 -29 -19 -56 -32 -59 -29 -3 4 -6 1 -6 -5 0 -7 -4 -12 -9 -12
-25 0 -328 -221 -431 -314 -250 -227 -400 -412 -577 -711 -27 -45 -106 -211
-106 -222 0 -7 -4 -13 -9 -13 -4 0 -8 -9 -8 -20 0 -11 -5 -20 -12 -20 -6 0 -9
-3 -5 -6 3 -3 -6 -36 -20 -72 -44 -117 -97 -313 -118 -437 -3 -16 -7 -41 -10
-55 -5 -25 -13 -88 -20 -145 -18 -163 -24 -471 -11 -625 12 -153 18 -205 22
-211 2 -4 6 -30 9 -58 9 -96 87 -433 106 -456 4 -6 10 -22 12 -35 4 -28 14
-57 28 -82 5 -10 9 -22 9 -28 0 -6 9 -32 21 -58 12 -26 25 -56 30 -67 39 -91
84 -183 124 -255 26 -47 53 -94 59 -105 14 -26 129 -198 136 -205 3 -3 31 -39
62 -80 31 -41 66 -86 78 -100 12 -14 33 -47 47 -75 14 -27 35 -63 47 -80 11
-16 20 -32 20 -35 -3 -12 159 -254 208 -312 13 -14 32 -38 42 -53 21 -28 22
-29 111 -130 64 -72 209 -216 289 -287 27 -23 58 -51 68 -60 10 -10 21 -18 24
-18 4 0 14 -8 23 -18 81 -88 499 -366 781 -519 209 -114 666 -323 706 -323 8
0 14 -5 14 -10 0 -6 3 -9 8 -8 7 1 25 -5 72 -24 14 -6 72 -27 130 -48 58 -21
121 -45 140 -53 19 -8 60 -25 90 -37 78 -30 90 -35 135 -55 22 -10 42 -19 45
-20 9 -3 65 -25 85 -34 26 -12 409 -202 443 -220 15 -8 30 -19 34 -25 4 -6 8
-7 8 -3 0 5 13 -1 29 -12 16 -12 32 -21 35 -21 4 0 19 -8 34 -18 15 -11 61
-41 102 -67 84 -54 275 -196 333 -248 51 -45 67 -108 71 -287 10 -404 -129
-753 -385 -962 -23 -18 -51 -41 -62 -51 -12 -11 -35 -26 -52 -34 -16 -9 -32
-19 -35 -22 -3 -3 -44 -25 -92 -49 -114 -56 -291 -116 -403 -136 -28 -6 -46
-9 -104 -21 -29 -5 -125 -18 -166 -21 -16 -1 -30 -3 -30 -4 0 -10 -513 -15
-615 -6 -25 2 -79 7 -120 10 -41 4 -86 9 -100 11 -14 2 -43 7 -65 9 -22 3 -51
8 -65 11 -14 3 -41 8 -60 11 -19 3 -42 7 -50 10 -8 3 -26 8 -40 10 -49 9 -215
57 -242 71 -16 7 -28 12 -28 9 0 -15 -251 108 -343 167 -101 65 -208 157 -183
157 3 0 -3 23 -14 50 -11 28 -18 50 -15 50 2 0 0 11 -5 26 -6 14 -12 37 -15
52 -3 15 -7 38 -10 52 -8 39 -23 139 -31 205 -9 69 -9 474 0 650 4 99 2 131
-13 185 -31 110 -109 225 -183 272 -21 12 -38 26 -38 31 0 4 -7 7 -15 7 -8 0
-15 5 -15 10 0 6 -9 10 -19 10 -11 0 -22 4 -25 9 -3 4 -25 14 -48 20 l-43 12
-1 92 c-1 91 -6 121 -28 182 -11 29 -30 69 -36 75 -3 3 -11 17 -18 31 -17 32
-77 97 -123 131 -128 97 -268 124 -449 87 -52 -11 -103 -21 -115 -23 -11 -2
-40 -9 -65 -16 -25 -7 -49 -13 -55 -15 -5 -1 -21 -7 -35 -12 -14 -6 -28 -9
-33 -6 -4 2 -7 -1 -7 -6 0 -6 -5 -11 -11 -11 -15 0 -91 -54 -130 -92 -76 -75
-122 -160 -145 -267 -10 -50 -13 -125 -9 -306 2 -132 7 -260 9 -285 3 -25 7
-65 10 -90 13 -132 70 -427 93 -480 3 -8 8 -23 9 -33 5 -24 42 -137 54 -162 5
-11 23 -56 41 -100 35 -85 119 -252 150 -297 11 -14 19 -29 19 -32 0 -13 150
-214 195 -262 49 -52 68 -79 100 -147 38 -78 76 -146 106 -189 11 -14 19 -29
19 -33 0 -4 14 -24 30 -45 17 -21 30 -41 30 -44 0 -3 8 -15 18 -25 9 -11 22
-26 27 -33 96 -131 293 -320 450 -435 98 -71 228 -153 243 -153 6 0 12 -4 12
-8 0 -5 16 -14 35 -22 19 -8 35 -17 35 -22 0 -4 4 -8 9 -8 5 0 54 -21 108 -46
155 -72 265 -117 318 -130 17 -4 35 -11 41 -15 6 -5 19 -10 30 -12 10 -2 26
-7 34 -10 8 -3 35 -11 60 -18 25 -7 50 -14 55 -15 99 -28 144 -40 194 -50 14
-3 28 -7 32 -9 4 -3 24 -7 45 -10 22 -3 46 -8 54 -11 8 -3 33 -8 55 -11 22 -3
47 -9 56 -14 9 -4 19 -6 22 -2 3 3 14 2 24 -2 10 -4 32 -8 48 -10 24 -2 114
-15 135 -20 6 -2 136 -17 170 -21 14 -1 25 -3 25 -4 0 -1 25 -3 55 -5 30 -2
89 -6 130 -10 41 -3 113 -9 160 -12 204 -16 850 -8 1035 12 157 17 348 44 425
60 14 3 39 8 55 10 133 23 451 113 598 169 37 14 67 22 67 18 0 -4 4 -2 8 3 6
9 98 51 127 59 38 11 378 188 395 206 3 3 26 18 52 33 26 15 53 33 60 40 7 8
25 20 38 27 23 12 128 88 140 100 3 3 17 15 32 26 132 101 335 303 464 459 64
77 165 226 219 320 16 28 33 53 38 56 5 3 8 9 8 12 0 9 44 103 56 119 9 12 73
162 78 183 1 6 10 28 19 49 10 22 19 47 21 55 2 9 16 52 30 96 15 44 28 91 30
105 3 14 12 50 20 80 9 30 17 62 17 70 0 8 4 31 9 50 11 48 17 86 24 148 2 29
7 63 10 75 26 111 25 691 -1 811 -3 11 -7 39 -9 61 -2 22 -5 41 -6 43 -1 1 -2
10 -4 20 -1 9 -5 28 -8 42 -4 14 -9 37 -12 53 -3 15 -7 37 -10 50 -3 12 -7 31
-9 42 -2 11 -9 34 -16 50 -6 17 -11 32 -11 35 1 13 -23 93 -50 165 -17 44 -32
87 -34 95 -6 26 -109 245 -117 248 -5 2 -8 10 -8 17 0 42 -307 501 -371 555
-3 3 -25 41 -49 85 -50 94 -148 256 -164 270 -18 17 -56 74 -56 84 0 5 -3 11
-8 13 -4 2 -23 23 -42 48 -19 25 -39 50 -45 57 -5 6 -28 33 -50 59 -114 138
-385 406 -468 463 -12 8 -28 21 -35 28 -7 6 -34 29 -60 50 -26 21 -48 41 -50
46 -2 4 -10 7 -17 7 -7 0 -15 3 -17 8 -3 8 -134 105 -183 136 -16 11 -34 23
-40 28 -15 13 -225 148 -230 148 -2 0 -24 14 -48 30 -25 17 -50 30 -56 30 -6
0 -11 4 -11 8 0 4 -12 13 -27 19 -16 7 -55 28 -88 47 -33 19 -85 47 -115 62
-30 15 -56 31 -58 36 -2 4 -7 8 -12 8 -4 0 -95 42 -201 94 -171 82 -220 105
-239 111 -3 1 -31 13 -64 28 -32 15 -60 27 -62 27 -2 0 -23 9 -47 19 -23 11
-69 31 -102 44 -33 13 -69 28 -80 32 -11 5 -22 9 -25 10 -11 4 -47 18 -87 35
-23 10 -44 16 -47 12 -3 -3 -6 0 -6 7 0 7 -4 10 -9 6 -5 -3 -12 -1 -16 5 -3 5
-17 10 -30 10 -13 0 -26 4 -29 9 -3 5 -16 11 -28 14 -13 3 -81 26 -153 52 -71
26 -134 48 -140 49 -5 1 -27 10 -49 19 -21 9 -42 17 -45 17 -4 0 -54 18 -112
40 -117 46 -122 48 -202 84 -32 14 -60 26 -63 26 -4 0 -38 15 -78 34 -39 18
-93 44 -121 57 -89 41 -310 162 -313 171 -2 4 -8 8 -13 8 -11 0 -205 127 -229
150 -9 8 -31 26 -50 40 -82 59 -83 64 -84 260 0 104 5 170 19 240 2 14 7 39
11 55 8 41 65 209 73 215 4 3 15 21 24 41 58 125 216 282 373 371 69 38 217
106 249 113 5 1 17 5 25 8 17 7 117 35 149 42 11 3 29 7 39 9 9 2 37 7 62 11
25 4 54 9 65 11 204 39 703 49 950 20 17 -2 59 -7 95 -11 36 -4 74 -9 85 -12
11 -3 27 -5 35 -5 12 -1 127 -24 210 -43 243 -55 474 -157 657 -292 62 -45 73
-59 88 -103 9 -28 18 -56 19 -63 2 -7 6 -23 9 -37 4 -14 8 -38 11 -55 2 -16 7
-37 10 -45 3 -8 8 -37 11 -65 2 -27 7 -63 9 -80 3 -16 8 -100 11 -185 7 -179
23 -258 67 -344 57 -109 200 -229 301 -252 15 -3 29 -10 32 -15 3 -4 7 -51 10
-104 3 -53 8 -102 12 -108 4 -7 9 -21 10 -32 7 -46 68 -149 126 -210 34 -36
67 -65 74 -65 7 0 13 -4 13 -9 0 -12 128 -68 175 -76 74 -13 150 -12 225 2 41
7 86 15 100 17 211 32 369 156 441 346 18 48 32 128 32 180 -1 49 -26 241 -44
335 -6 28 -13 61 -15 75 -24 121 -66 275 -112 400 -3 8 -6 20 -8 25 -4 18 -52
127 -102 235 -38 83 -136 244 -205 340 -60 83 -83 111 -140 173 -16 17 -49 72
-74 122 -25 49 -61 114 -79 143 -19 29 -34 57 -34 62 0 6 -4 10 -8 10 -5 0
-14 10 -19 23 -6 12 -18 31 -27 42 -8 11 -43 56 -78 100 -34 44 -85 104 -113
132 -29 29 -50 55 -47 58 3 3 1 5 -4 5 -6 0 -32 21 -60 48 -27 26 -67 61 -89
77 -22 17 -53 42 -70 57 -16 16 -34 28 -38 28 -5 0 -15 6 -22 13 -30 26 -43
35 -142 95 -56 34 -159 89 -230 122 -156 74 -162 77 -193 85 -14 4 -38 13 -55
21 -37 16 -182 64 -195 64 -5 0 -21 5 -37 12 -15 6 -32 12 -38 13 -5 2 -71 17
-146 34 -75 17 -151 33 -170 35 -19 3 -34 5 -34 6 0 3 -31 8 -180 29 -115 16
-196 25 -335 37 -72 6 -777 13 -783 8z"/>
</g>
</svg>
