<svg xmlns="http://www.w3.org/2000/svg" xml:space="preserve" width="512" height="512" viewBox="0 0 683 683"><defs><clipPath id="a" clipPathUnits="userSpaceOnUse"><path d="M0 512h512V0H0Z" data-original="#000000"/></clipPath></defs><g clip-path="url(#a)" transform="matrix(1.33333 0 0 -1.33333 0 683)"><path fill="#f7890f" d="M244 7v265H120C78 183 96 89 144 7h100" data-original="#f7890f"/><path fill="#f2ebeb" d="M120 272S45 127 161 79l93 192Z" data-original="#f2ebeb"/><path fill="#fd9e35" d="M168 7c-31 212 86 264 86 264 34-43 89-92 105-146V8Z" data-original="#fd9e35"/><path fill="#f7890f" d="M254 271s-11-5-25-17c33-39 76-82 90-129V7h40v118c-16 54-71 103-105 146" data-original="#f7890f"/><path fill="#fd9e35" d="M187 269c149 36 182 99 182 99l-64 46c13 35 0 90 0 90-37-15-62-53-62-53-29 12-81 12-110 0 0 0-25 38-62 53 0 0-13-55 0-90L8 368c37-65 97-78 179-99" data-original="#fd9e35"/><path fill="#f7890f" d="M305 414c13 35 0 90 0 90-14-5-26-14-36-24-16-15-24-25-26-29 0 0-13 7-44 9 78-30 133-96 133-96L188 254c148 36 181 114 181 114Z" data-original="#f7890f"/><path fill="#f2ebeb" d="M8 368c109 0 167-82 167-82h26s62 82 168 82c0 0-34-84-182-119 0 0-129 23-179 119" data-original="#f2ebeb"/><path fill="#9b592d" d="m188 250 18 20c5 8-1 17-10 17h-16c-9 0-15-9-10-17z" data-original="#9b592d"/><path fill="#f2ebeb" d="m70 413 32 22s-10 25-35 49c0 0-7-41 3-71M306 413l-32 22s10 26 35 50c0 0 7-39-3-72" data-original="#f2ebeb"/><path fill="#fd9e35" d="M343 115c-20-11-45-18-67-24-87-22-87-83-87-83h186a130 130 0 1 1-88 225s57-62 72-108c0 0-1-2-16-10" data-original="#fd9e35"/><path fill="#f7890f" d="M375 267a133 133 0 0 1-20-1A130 130 0 0 0 335 8h40a130 130 0 0 1 0 259" data-original="#f7890f"/><path fill="#f2ebeb" d="m280 48 12 24-23 17c-80-23-80-81-80-81h95l17 23z" data-original="#f2ebeb"/><path fill="#f7890f" d="M359 125s38 22 32 69c0 0-6-29-44-44l4-9 8-16M319 104c-7-2-33-11-50-15-18-3-54-21-68-46 0 0 3 41 47 65 45 24 83 34 99 42z" data-original="#f7890f"/><path fill="none" stroke="#060606" stroke-linecap="round" stroke-linejoin="round" stroke-miterlimit="10" stroke-width="15" d="M359 125c-16 54-71 103-105 146 0 0-117-52-86-264" data-original="#060606"/><path fill="none" stroke="#060606" stroke-linecap="round" stroke-linejoin="round" stroke-miterlimit="10" stroke-width="15" d="M120 272C78 183 96 89 144 7h45" data-original="#060606"/><path fill="none" stroke="#060606" stroke-linecap="round" stroke-linejoin="round" stroke-miterlimit="10" stroke-width="15" d="M67 302c32-24 73-40 120-53 149 36 182 119 182 119l-64 46c13 35 0 90 0 90-37-15-62-53-62-53-29 12-81 12-110 0 0 0-25 38-62 53 0 0-13-55 0-90L8 368c8-16 19-29 30-41" data-original="#060606"/><path fill="none" stroke="#060606" stroke-linecap="round" stroke-linejoin="round" stroke-miterlimit="10" stroke-width="15" d="M201 286s62 82 168 82M175 286s-58 82-167 82" data-original="#060606"/><path fill="#060606" d="M149 356c10 0 10 15 0 15s-10-15 0-15M227 356c10 0 10 15 0 15s-10-15 0-15" data-original="#060606"/><path fill="none" stroke="#060606" stroke-linecap="round" stroke-linejoin="round" stroke-miterlimit="10" stroke-width="15" d="m188 250 18 20c5 8-1 17-10 17h-16c-9 0-15-9-10-17zM70 413l32 22s-10 25-34 49M306 413l-32 22s10 25 34 49M451 32c-22-15-48-24-76-24H189s0 61 87 83c54 14 120 36 115 103" data-original="#060606"/><path fill="none" stroke="#060606" stroke-linecap="round" stroke-linejoin="round" stroke-miterlimit="10" stroke-width="15" d="M287 233A130 130 0 0 0 476 56M269 89l23-17-12-24 21-17-17-23M120 272S45 127 161 79" data-original="#060606"/></g></svg>