<svg version="1.2" xmlns="http://www.w3.org/2000/svg" viewBox="0 0 24 24" width="24" height="24"><style>.a{fill:none;stroke:#000;stroke-linejoin:round;stroke-width:1.5}</style><path class="a" d="m19.2 5.3q-2-0.9-4.2-1.3c-0.2 0.3-0.4 0.8-0.5 1.1q-2.4-0.3-4.7 0c-0.1-0.3-0.3-0.8-0.5-1.1q-2.2 0.4-4.2 1.3c-2.7 4-3.4 7.9-3 11.7 1.7 1.3 3.4 2.1 5.1 2.7q0.6-0.9 1.1-1.8-0.9-0.4-1.7-0.9 0.2-0.2 0.4-0.3c3.3 1.5 7 1.5 10.3 0q0.2 0.1 0.4 0.3-0.9 0.5-1.8 0.9 0.5 0.9 1.1 1.8c1.7-0.6 3.4-1.4 5.2-2.7 0.4-4.4-0.7-8.3-3-11.7zm-10.4 9.4c-1 0-1.8-1-1.8-2.1 0-1.1 0.8-2.1 1.8-2.1 1 0 1.8 1 1.8 2.1 0 1.1-0.8 2.1-1.8 2.1zm6.7 0c-1 0-1.8-1-1.8-2.1 0-1.1 0.8-2.1 1.8-2.1 1 0 1.8 1 1.8 2.1 0 1.1-0.8 2.1-1.8 2.1z"/></svg>