<svg width="621" height="102.101" viewBox="0 0 621 102.101" xmlns="http://www.w3.org/2000/svg"><g id="svgGroup" stroke-linecap="round" fill-rule="nonzero" font-size="9pt" stroke="#000" stroke-width="0.25mm" fill="#000" style="stroke:#000;stroke-width:0.25mm;fill:#000"><path d="M 328.356 76.324 A 29.468 29.468 0 0 1 323.2 74.8 Q 317.7 72.6 313.7 68.55 Q 309.7 64.5 307.55 59 A 31.618 31.618 0 0 1 305.503 49.796 A 37.438 37.438 0 0 1 305.4 47 Q 305.4 40.8 307.2 35.55 A 41.832 41.832 0 0 1 310.109 28.922 A 36.025 36.025 0 0 1 311.8 26.15 A 44.077 44.077 0 0 1 315.055 21.884 A 34.844 34.844 0 0 1 317.75 19.1 A 45.058 45.058 0 0 1 320.049 17.115 Q 321.913 15.619 323.6 14.65 Q 325.835 13.367 327.317 13.146 A 3.963 3.963 0 0 1 327.9 13.1 A 10.727 10.727 0 0 1 329.166 13.171 Q 330.15 13.288 330.9 13.6 A 3.622 3.622 0 0 1 331.822 14.174 Q 332.53 14.765 333.2 15.8 Q 335.1 18.4 334.15 20.5 A 8.136 8.136 0 0 1 332.546 22.818 A 11.206 11.206 0 0 1 330.9 24.2 A 32.481 32.481 0 0 0 325.326 28.987 A 29.682 29.682 0 0 0 324.35 30.1 Q 321.6 33.4 320.05 37.5 A 23.137 23.137 0 0 0 318.841 42.224 Q 318.503 44.452 318.5 46.961 A 37.553 37.553 0 0 0 318.5 47 A 21.648 21.648 0 0 0 319.045 51.954 A 17.555 17.555 0 0 0 320.55 56.05 Q 322.6 60 326.4 62.2 A 15.988 15.988 0 0 0 331.588 64.065 A 21.8 21.8 0 0 0 335.5 64.4 A 22.249 22.249 0 0 0 342.287 63.389 A 20.097 20.097 0 0 0 345.5 62.05 Q 350 59.7 352.7 55.55 A 16.76 16.76 0 0 0 355.353 47.413 A 20.659 20.659 0 0 0 355.4 46 Q 355.4 41 354.1 36.1 A 36.432 36.432 0 0 0 351.018 28.204 A 33.561 33.561 0 0 0 350.4 27.1 A 25.201 25.201 0 0 0 347.61 23.196 A 20.158 20.158 0 0 0 344.75 20.5 A 11.906 11.906 0 0 0 340.491 18.367 A 11.353 11.353 0 0 0 337.6 18 A 3.21 3.21 0 0 0 336.712 18.116 A 2.242 2.242 0 0 0 335.4 19.1 Q 334.858 19.952 334.736 21.283 A 8.937 8.937 0 0 0 334.7 22.1 Q 334.7 23.649 334.129 24.681 A 3.505 3.505 0 0 1 333.65 25.35 A 3.462 3.462 0 0 1 331.552 26.445 A 4.943 4.943 0 0 1 330.8 26.5 A 7.048 7.048 0 0 1 327.43 25.628 A 8.625 8.625 0 0 1 326.95 25.35 A 7.77 7.77 0 0 1 324.737 23.249 A 10.115 10.115 0 0 1 323.95 21.95 A 9.901 9.901 0 0 1 323.092 19.46 Q 322.855 18.327 322.811 17.018 A 18.101 18.101 0 0 1 322.8 16.4 Q 322.8 13.4 324.35 10.8 Q 325.9 8.2 328.9 6.55 Q 331.805 4.953 335.927 4.902 A 22.092 22.092 0 0 1 336.2 4.9 A 27.796 27.796 0 0 1 345.31 6.365 A 25.564 25.564 0 0 1 349.6 8.3 Q 355.6 11.7 359.9 17.5 Q 364.2 23.3 366.5 30.65 Q 368.8 38 368.8 46 Q 368.8 52.6 366.25 58.2 Q 363.7 63.8 359.15 68.05 Q 354.6 72.3 348.6 74.65 Q 342.6 77 335.5 77 A 36.249 36.249 0 0 1 328.356 76.324 Z M 154.5 49.6 L 158.7 52.9 A 54.859 54.859 0 0 1 157.017 56.901 Q 156.143 58.758 155.21 60.307 A 28.618 28.618 0 0 1 154.35 61.65 A 27.374 27.374 0 0 1 152.408 64.19 Q 151.331 65.43 150.214 66.356 A 14.879 14.879 0 0 1 149.45 66.95 A 18.841 18.841 0 0 1 147.071 68.432 A 13.998 13.998 0 0 1 144.4 69.5 Q 141.942 70.189 139.87 70.2 A 12.668 12.668 0 0 1 139.8 70.2 A 22.589 22.589 0 0 1 134.182 69.53 A 17.969 17.969 0 0 1 128.9 67.25 A 16.278 16.278 0 0 1 124.118 62.45 A 23.357 23.357 0 0 1 121.85 58 Q 119.4 51.7 119.4 41.7 Q 119.4 35.713 120.022 32.216 A 19.576 19.576 0 0 1 120.3 30.9 Q 121.2 27.3 122.85 26 Q 124.5 24.7 126.7 24.7 Q 128.708 24.7 130.135 25.281 A 5.702 5.702 0 0 1 131.05 25.75 Q 132.7 26.8 133.4 28.65 Q 134.019 30.285 134.091 32.506 A 18.366 18.366 0 0 1 134.1 33.1 Q 133.9 37.4 133.65 41.7 Q 133.439 45.329 133.584 48.352 A 45.123 45.123 0 0 0 133.65 49.45 A 18.891 18.891 0 0 0 133.934 51.663 Q 134.153 52.796 134.509 53.734 A 8.907 8.907 0 0 0 135.1 55 A 3.942 3.942 0 0 0 137.928 57.007 A 5.867 5.867 0 0 0 139 57.1 A 7.934 7.934 0 0 0 144.337 55.033 A 11.942 11.942 0 0 0 145.8 53.5 A 21.541 21.541 0 0 0 148.098 49.936 Q 149.048 48.116 149.839 45.912 A 43.249 43.249 0 0 0 150.55 43.75 A 69.628 69.628 0 0 0 152.452 35.614 A 85.31 85.31 0 0 0 153.2 30.3 A 15.748 15.748 0 0 1 153.471 28.791 Q 153.901 26.959 154.7 26.05 A 3.241 3.241 0 0 1 155.977 25.185 Q 156.514 24.975 157.188 24.879 A 8.684 8.684 0 0 1 158.4 24.8 A 7.212 7.212 0 0 1 161.184 25.336 A 6.961 6.961 0 0 1 161.55 25.5 A 8.12 8.12 0 0 1 163.858 27.185 A 9.431 9.431 0 0 1 164.15 27.5 A 6.692 6.692 0 0 1 165.226 29.189 Q 165.556 29.917 165.772 30.784 A 11.259 11.259 0 0 1 165.8 30.9 Q 166.23 32.705 166.069 35.175 A 24.026 24.026 0 0 1 166 36 A 78.235 78.235 0 0 0 165.631 39.833 Q 165.486 41.899 165.486 43.727 A 43.28 43.28 0 0 0 165.5 44.85 A 83.972 83.972 0 0 0 165.742 49.468 A 68.796 68.796 0 0 0 166 52.05 Q 166.4 55.4 166.95 58.85 Q 167.5 62.3 167.9 66.55 A 81.673 81.673 0 0 1 168.144 69.942 Q 168.251 72.002 168.285 74.329 A 150.63 150.63 0 0 1 168.3 76.5 A 43.141 43.141 0 0 1 167.981 81.895 Q 167.563 85.203 166.6 87.95 A 24.215 24.215 0 0 1 164.6 92.301 A 18.697 18.697 0 0 1 161.85 95.9 Q 158.8 99 154.6 100.55 Q 150.4 102.1 145.5 102.1 A 66.615 66.615 0 0 1 140.48 101.923 Q 138.109 101.743 136.089 101.381 A 28.349 28.349 0 0 1 132.8 100.6 A 22.519 22.519 0 0 1 129.764 99.442 Q 128.266 98.734 127.12 97.86 A 10.557 10.557 0 0 1 125.55 96.4 Q 123.2 93.7 123.2 90.2 A 7.392 7.392 0 0 1 123.335 88.744 Q 123.61 87.374 124.45 86.5 A 3.993 3.993 0 0 1 126.22 85.449 Q 127.05 85.2 128.1 85.2 Q 129.7 85.2 130.95 85.75 Q 131.81 86.129 132.882 86.578 A 183.058 183.058 0 0 0 133.9 87 Q 135.169 87.523 136.938 87.961 A 37.46 37.46 0 0 0 138.2 88.25 A 21.324 21.324 0 0 0 140.177 88.564 Q 141.21 88.682 142.416 88.741 A 52.846 52.846 0 0 0 145 88.8 Q 149 88.8 151.3 87.3 A 8.235 8.235 0 0 0 154.499 83.316 A 10.2 10.2 0 0 0 154.6 83.05 A 15.585 15.585 0 0 0 155.318 80.242 Q 155.547 78.844 155.59 77.251 A 27.705 27.705 0 0 0 155.6 76.5 Q 155.6 73.1 155.4 70.2 Q 155.2 67.3 155.05 64.3 Q 154.9 61.3 154.7 57.75 A 117.585 117.585 0 0 1 154.563 54.443 Q 154.516 52.752 154.504 50.873 A 201.558 201.558 0 0 1 154.5 49.6 Z M 391.8 61.6 L 388.7 58.6 A 106.578 106.578 0 0 1 391.652 50.046 Q 393.303 45.883 395.163 42.411 A 56.207 56.207 0 0 1 396.65 39.8 Q 401.2 32.3 406.3 28.5 Q 411.4 24.7 416.3 24.7 Q 420.422 24.7 423.195 26.53 A 9.718 9.718 0 0 1 423.3 26.6 A 11.185 11.185 0 0 1 427.028 30.91 A 13.957 13.957 0 0 1 427.5 31.95 Q 428.837 35.244 428.897 39.676 A 30.992 30.992 0 0 1 428.9 40.1 A 298.149 298.149 0 0 0 428.942 45.266 Q 428.977 47.29 429.042 49.098 A 147.665 147.665 0 0 0 429.2 52.5 Q 429.5 57.6 430.45 60.8 Q 431.309 63.694 432.945 65.443 A 8.342 8.342 0 0 0 433.3 65.8 A 10.697 10.697 0 0 1 434.293 66.936 A 7.851 7.851 0 0 1 435.1 68.25 A 5.574 5.574 0 0 1 435.51 69.469 Q 435.7 70.332 435.7 71.4 A 5.219 5.219 0 0 1 434.693 74.468 A 7.164 7.164 0 0 1 434.05 75.25 A 5.262 5.262 0 0 1 431.664 76.677 Q 430.813 76.93 429.788 76.985 A 10.934 10.934 0 0 1 429.2 77 A 8.325 8.325 0 0 1 423.339 74.61 A 11.602 11.602 0 0 1 422.6 73.85 A 13.966 13.966 0 0 1 420.719 71.079 Q 419.261 68.317 418.315 64.215 A 44.553 44.553 0 0 1 418.3 64.15 A 51.413 51.413 0 0 1 417.401 58.862 Q 416.8 53.892 416.8 47.5 Q 416.8 44.46 416.665 42.412 A 40.407 40.407 0 0 0 416.65 42.2 Q 416.546 40.746 416.323 39.676 A 9.806 9.806 0 0 0 416.1 38.8 A 7.019 7.019 0 0 0 415.576 37.532 A 5.596 5.596 0 0 0 414.95 36.6 A 7.804 7.804 0 0 0 414.03 35.676 A 10.702 10.702 0 0 0 413 34.9 A 21.392 21.392 0 0 1 414.695 34.964 Q 415.522 35.03 416.236 35.164 A 10.492 10.492 0 0 1 417.05 35.35 A 4.395 4.395 0 0 1 418.366 35.94 A 3.744 3.744 0 0 1 419.5 37.15 A 4.391 4.391 0 0 1 419.944 38.226 Q 420.259 39.369 420.203 41.028 A 15.744 15.744 0 0 1 420.2 41.1 A 26.107 26.107 0 0 0 419.336 40.022 Q 418.504 39.043 417.816 38.479 A 5.803 5.803 0 0 0 417.45 38.2 Q 416.3 37.4 414.9 37.4 Q 413.183 37.4 410.976 39.32 A 16.585 16.585 0 0 0 410.5 39.75 A 24.641 24.641 0 0 0 408.59 41.78 Q 407.678 42.857 406.735 44.168 A 54.007 54.007 0 0 0 405.25 46.35 A 57.374 57.374 0 0 0 402.716 50.697 Q 401.305 53.366 399.95 56.5 A 102.302 102.302 0 0 0 397.081 63.965 A 128.917 128.917 0 0 0 395.3 69.6 Q 394.339 72.965 393.185 74.629 A 5.732 5.732 0 0 1 392.6 75.35 A 4.963 4.963 0 0 1 389.947 76.764 A 7.289 7.289 0 0 1 388.5 76.9 A 6.956 6.956 0 0 1 385.185 76.129 Q 383.131 75.037 381.9 72.4 A 20.218 20.218 0 0 1 380.502 68.159 Q 379.8 64.947 379.8 60.9 A 95.632 95.632 0 0 1 379.863 57.333 Q 379.929 55.571 380.064 54.006 A 51.617 51.617 0 0 1 380.25 52.2 Q 380.7 48.5 381.25 45.3 Q 381.8 42.1 382.25 38.75 Q 382.693 35.453 382.7 31.332 A 77.932 77.932 0 0 0 382.7 31.2 A 10.29 10.29 0 0 1 382.824 29.551 Q 383.116 27.755 384.1 26.7 Q 385.38 25.329 387.747 25.211 A 9.139 9.139 0 0 1 388.2 25.2 Q 391.2 25.2 392.85 27.15 A 5.742 5.742 0 0 1 393.823 28.868 Q 394.433 30.501 394.493 32.949 A 22.242 22.242 0 0 1 394.5 33.5 A 37.039 37.039 0 0 1 394.373 36.639 A 28.251 28.251 0 0 1 394.05 39.15 Q 393.6 41.7 393 44.65 A 52.681 52.681 0 0 0 392.578 47.018 Q 392.25 49.119 392 51.65 Q 391.6 55.7 391.8 61.6 Z M 519.6 61.6 L 516.5 58.6 A 106.578 106.578 0 0 1 519.452 50.046 Q 521.103 45.883 522.963 42.411 A 56.207 56.207 0 0 1 524.45 39.8 Q 529 32.3 534.1 28.5 Q 539.2 24.7 544.1 24.7 Q 548.222 24.7 550.995 26.53 A 9.718 9.718 0 0 1 551.1 26.6 A 11.185 11.185 0 0 1 554.828 30.91 A 13.957 13.957 0 0 1 555.3 31.95 Q 556.637 35.244 556.697 39.676 A 30.992 30.992 0 0 1 556.7 40.1 A 298.149 298.149 0 0 0 556.742 45.266 Q 556.777 47.29 556.842 49.098 A 147.665 147.665 0 0 0 557 52.5 Q 557.3 57.6 558.25 60.8 Q 559.109 63.694 560.745 65.443 A 8.342 8.342 0 0 0 561.1 65.8 A 10.697 10.697 0 0 1 562.093 66.936 A 7.851 7.851 0 0 1 562.9 68.25 A 5.574 5.574 0 0 1 563.31 69.469 Q 563.5 70.332 563.5 71.4 A 5.219 5.219 0 0 1 562.493 74.468 A 7.164 7.164 0 0 1 561.85 75.25 A 5.262 5.262 0 0 1 559.464 76.677 Q 558.613 76.93 557.588 76.985 A 10.934 10.934 0 0 1 557 77 A 8.325 8.325 0 0 1 551.139 74.61 A 11.602 11.602 0 0 1 550.4 73.85 A 13.966 13.966 0 0 1 548.519 71.079 Q 547.061 68.317 546.115 64.215 A 44.553 44.553 0 0 1 546.1 64.15 A 51.413 51.413 0 0 1 545.201 58.862 Q 544.6 53.892 544.6 47.5 Q 544.6 44.46 544.465 42.412 A 40.407 40.407 0 0 0 544.45 42.2 Q 544.346 40.746 544.123 39.676 A 9.806 9.806 0 0 0 543.9 38.8 A 7.019 7.019 0 0 0 543.376 37.532 A 5.596 5.596 0 0 0 542.75 36.6 A 7.804 7.804 0 0 0 541.83 35.676 A 10.702 10.702 0 0 0 540.8 34.9 A 21.392 21.392 0 0 1 542.495 34.964 Q 543.322 35.03 544.036 35.164 A 10.492 10.492 0 0 1 544.85 35.35 A 4.395 4.395 0 0 1 546.166 35.94 A 3.744 3.744 0 0 1 547.3 37.15 A 4.391 4.391 0 0 1 547.744 38.226 Q 548.059 39.369 548.003 41.028 A 15.744 15.744 0 0 1 548 41.1 A 26.107 26.107 0 0 0 547.136 40.022 Q 546.304 39.043 545.616 38.479 A 5.803 5.803 0 0 0 545.25 38.2 Q 544.1 37.4 542.7 37.4 Q 540.983 37.4 538.776 39.32 A 16.585 16.585 0 0 0 538.3 39.75 A 24.641 24.641 0 0 0 536.39 41.78 Q 535.478 42.857 534.535 44.168 A 54.007 54.007 0 0 0 533.05 46.35 A 57.374 57.374 0 0 0 530.516 50.697 Q 529.105 53.366 527.75 56.5 A 102.302 102.302 0 0 0 524.881 63.965 A 128.917 128.917 0 0 0 523.1 69.6 Q 522.139 72.965 520.985 74.629 A 5.732 5.732 0 0 1 520.4 75.35 A 4.963 4.963 0 0 1 517.747 76.764 A 7.289 7.289 0 0 1 516.3 76.9 A 6.956 6.956 0 0 1 512.985 76.129 Q 510.931 75.037 509.7 72.4 A 20.218 20.218 0 0 1 508.302 68.159 Q 507.6 64.947 507.6 60.9 A 95.632 95.632 0 0 1 507.663 57.333 Q 507.729 55.571 507.864 54.006 A 51.617 51.617 0 0 1 508.05 52.2 Q 508.5 48.5 509.05 45.3 Q 509.6 42.1 510.05 38.75 Q 510.493 35.453 510.5 31.332 A 77.932 77.932 0 0 0 510.5 31.2 A 10.29 10.29 0 0 1 510.624 29.551 Q 510.916 27.755 511.9 26.7 Q 513.18 25.329 515.547 25.211 A 9.139 9.139 0 0 1 516 25.2 Q 519 25.2 520.65 27.15 A 5.742 5.742 0 0 1 521.623 28.868 Q 522.233 30.501 522.293 32.949 A 22.242 22.242 0 0 1 522.3 33.5 A 37.039 37.039 0 0 1 522.173 36.639 A 28.251 28.251 0 0 1 521.85 39.15 Q 521.4 41.7 520.8 44.65 A 52.681 52.681 0 0 0 520.378 47.018 Q 520.05 49.119 519.8 51.65 Q 519.4 55.7 519.6 61.6 Z M 235.9 77.2 Q 227.5 77.2 221.05 73.8 Q 214.6 70.4 210.95 64.35 A 25.534 25.534 0 0 1 207.372 52.733 A 31.102 31.102 0 0 1 207.3 50.6 Q 207.3 45.3 209.45 40.65 Q 211.6 36 215 32.45 Q 218.4 28.9 222.3 26.9 A 20.135 20.135 0 0 1 225.52 25.569 Q 227.474 24.963 229.32 24.906 A 12.369 12.369 0 0 1 229.7 24.9 Q 231.2 24.9 232.45 25.35 Q 233.7 25.8 234.5 26.8 Q 235.206 27.683 235.289 29.111 A 6.722 6.722 0 0 1 235.3 29.5 A 12.344 12.344 0 0 1 234.947 32.505 A 10.294 10.294 0 0 1 234.05 34.85 Q 232.8 37.2 228.9 38.7 A 19.724 19.724 0 0 0 225.297 41.09 A 17.88 17.88 0 0 0 224.5 41.8 Q 222.6 43.6 221.5 45.9 Q 220.4 48.2 220.4 50.7 A 16.728 16.728 0 0 0 221.026 55.389 A 12.847 12.847 0 0 0 224.5 61.15 A 13.802 13.802 0 0 0 231.601 64.752 A 19.79 19.79 0 0 0 235.4 65.1 A 13.675 13.675 0 0 0 239.902 64.389 A 11.637 11.637 0 0 0 244.8 61.1 A 13.555 13.555 0 0 0 247.894 55.046 Q 248.4 52.913 248.4 50.4 A 18.475 18.475 0 0 0 248.023 46.555 Q 247.328 43.288 245.35 41.05 A 10.027 10.027 0 0 0 238.824 37.702 A 14.146 14.146 0 0 0 237.1 37.6 A 9.237 9.237 0 0 0 235.284 37.769 Q 234.147 37.997 233.254 38.533 A 5.492 5.492 0 0 0 232.85 38.8 Q 231.568 39.733 230.073 41.15 A 45.609 45.609 0 0 0 229.2 42 Q 227.7 43.5 226.75 44.5 A 8.486 8.486 0 0 1 225.852 45.325 A 6.151 6.151 0 0 1 224.8 46 A 4.405 4.405 0 0 1 223.753 46.359 Q 223.262 46.465 222.693 46.492 A 8.418 8.418 0 0 1 222.3 46.5 A 3.817 3.817 0 0 1 219.578 45.377 A 5.011 5.011 0 0 1 219.5 45.3 Q 218.478 44.278 218.326 41.73 A 15.72 15.72 0 0 1 218.3 40.8 A 10.513 10.513 0 0 1 218.993 37.107 A 13.581 13.581 0 0 1 219.8 35.35 Q 221.3 32.6 223.85 30.35 Q 226.4 28.1 229.5 26.7 Q 232.6 25.3 235.9 25.3 A 35.149 35.149 0 0 1 242.469 25.884 A 25.324 25.324 0 0 1 249.65 28.35 Q 255.4 31.4 258.45 36.95 A 24.069 24.069 0 0 1 260.997 44.299 A 33.032 33.032 0 0 1 261.5 50.2 A 29.902 29.902 0 0 1 260.364 58.569 A 25.997 25.997 0 0 1 258.1 64 Q 254.7 70.1 248.95 73.65 A 23.949 23.949 0 0 1 237.478 77.158 A 29.025 29.025 0 0 1 235.9 77.2 Z M 589.87 76.736 Q 587.381 76.447 585.239 75.84 A 23.471 23.471 0 0 1 583.85 75.4 Q 579.3 73.8 576.4 70.8 Q 573.5 67.8 572.1 63.8 A 24.964 24.964 0 0 1 570.837 57.922 A 30.522 30.522 0 0 1 570.7 55 A 30.531 30.531 0 0 1 572.247 45.52 A 35.018 35.018 0 0 1 572.65 44.35 Q 574.6 39 578.3 34.55 Q 582 30.1 587.2 27.4 A 24.106 24.106 0 0 1 596.119 24.83 A 29.395 29.395 0 0 1 598.9 24.7 Q 604.2 24.7 608.25 26.55 Q 612.3 28.4 614.6 32.05 Q 616.837 35.601 616.898 40.806 A 25.023 25.023 0 0 1 616.9 41.1 A 14.84 14.84 0 0 1 616.416 44.968 A 12.075 12.075 0 0 1 614.9 48.4 Q 612.9 51.5 609.45 53.55 A 25.149 25.149 0 0 1 604.948 55.632 A 32.298 32.298 0 0 1 601.4 56.65 Q 596.8 57.7 591.6 57.7 A 27.216 27.216 0 0 1 588.676 57.554 Q 585.569 57.217 583.657 56.105 A 7.349 7.349 0 0 1 583.25 55.85 Q 580.5 54 580.5 51.6 A 4.773 4.773 0 0 1 580.554 50.854 Q 580.615 50.473 580.743 50.169 A 1.917 1.917 0 0 1 581.15 49.55 A 1.902 1.902 0 0 1 581.818 49.13 Q 582.409 48.9 583.3 48.9 A 10.094 10.094 0 0 1 584.188 48.943 Q 584.981 49.013 585.95 49.2 Q 587.35 49.471 589.77 49.498 A 48.952 48.952 0 0 0 590.3 49.5 A 25.384 25.384 0 0 0 594.943 49.09 A 21.588 21.588 0 0 0 597.35 48.5 A 17.145 17.145 0 0 0 599.87 47.514 Q 601.444 46.741 602.6 45.7 A 6.808 6.808 0 0 0 603.799 44.311 A 4.946 4.946 0 0 0 604.6 41.6 Q 604.6 39.862 604.019 38.705 A 3.854 3.854 0 0 0 603.3 37.7 A 3.739 3.739 0 0 0 602.014 36.885 Q 600.792 36.4 598.9 36.4 Q 595.6 36.4 592.75 38.1 A 16.234 16.234 0 0 0 587.979 42.473 A 18.545 18.545 0 0 0 587.85 42.65 A 22.173 22.173 0 0 0 585.113 47.81 A 25.736 25.736 0 0 0 584.65 49.15 Q 583.5 52.8 583.5 56.7 A 13.913 13.913 0 0 0 583.682 59.007 Q 583.908 60.353 584.416 61.476 A 8.706 8.706 0 0 0 584.45 61.55 Q 585.4 63.6 587.7 64.75 Q 589.438 65.619 592.032 65.832 A 21.697 21.697 0 0 0 593.8 65.9 A 45.597 45.597 0 0 0 597.754 65.739 Q 599.685 65.57 601.349 65.226 A 22.687 22.687 0 0 0 603.25 64.75 A 38.229 38.229 0 0 0 606.164 63.758 Q 607.52 63.231 608.659 62.645 A 19.909 19.909 0 0 0 609.65 62.1 A 282.188 282.188 0 0 0 611.464 61.025 Q 612.179 60.597 612.826 60.203 A 154.408 154.408 0 0 0 614.05 59.45 A 8.725 8.725 0 0 1 615.473 58.728 Q 616.359 58.381 617.209 58.315 A 5.116 5.116 0 0 1 617.6 58.3 A 4.623 4.623 0 0 1 618.581 58.397 Q 619.175 58.527 619.613 58.828 A 2.409 2.409 0 0 1 620.2 59.4 A 3.545 3.545 0 0 1 620.688 60.38 Q 620.99 61.296 621 62.615 A 11.923 11.923 0 0 1 621 62.7 A 6.493 6.493 0 0 1 620.484 65.177 Q 619.985 66.395 619 67.65 Q 617 70.2 613.45 72.3 A 29.651 29.651 0 0 1 609.127 74.384 A 39.408 39.408 0 0 1 605.1 75.7 A 37.512 37.512 0 0 1 598.122 76.874 A 45.191 45.191 0 0 1 594.7 77 A 41.868 41.868 0 0 1 589.87 76.736 Z M 12.278 76.632 Q 7.238 75.995 4.25 73.85 A 12.41 12.41 0 0 1 2.009 71.822 A 8.008 8.008 0 0 1 0 66.5 A 6.834 6.834 0 0 1 0.122 65.173 Q 0.34 64.072 0.95 63.3 Q 1.783 62.248 3.501 62.119 A 6.646 6.646 0 0 1 4 62.1 A 11.078 11.078 0 0 1 5.158 62.158 Q 5.86 62.232 6.45 62.4 A 26.644 26.644 0 0 1 7.679 62.785 A 33.848 33.848 0 0 1 8.7 63.15 A 13.258 13.258 0 0 0 9.836 63.516 Q 10.426 63.678 11.095 63.813 A 23.396 23.396 0 0 0 11.55 63.9 A 16.379 16.379 0 0 0 12.893 64.083 Q 14.1 64.2 15.6 64.2 A 85.858 85.858 0 0 0 19.327 64.124 Q 21.588 64.025 23.5 63.8 Q 26.9 63.4 29.45 62.65 A 29.35 29.35 0 0 0 33.358 61.203 A 26.249 26.249 0 0 0 34.2 60.8 A 5.734 5.734 0 0 0 33.041 58.787 Q 32.455 58.108 31.622 57.49 A 12.384 12.384 0 0 0 30.75 56.9 A 37.585 37.585 0 0 0 28.133 55.432 Q 26.77 54.733 25.211 54.052 A 64.29 64.29 0 0 0 24.15 53.6 A 331.628 331.628 0 0 1 18.206 51.06 A 376.871 376.871 0 0 1 16.15 50.15 Q 12 48.3 8.35 45.85 A 22.181 22.181 0 0 1 3.993 42.056 A 19.792 19.792 0 0 1 2.45 40.05 A 13.197 13.197 0 0 1 0.341 34.322 A 17.073 17.073 0 0 1 0.2 32.1 Q 0.2 27.2 3 23 A 27.812 27.812 0 0 1 7.955 17.428 A 33.66 33.66 0 0 1 10.4 15.5 Q 15 12.2 20.3 9.85 A 66.159 66.159 0 0 1 27.429 7.152 A 56.324 56.324 0 0 1 30.65 6.25 A 50.946 50.946 0 0 1 34.248 5.489 Q 37.088 5 39.4 5 A 12.551 12.551 0 0 1 41.132 5.113 Q 42.038 5.239 42.786 5.508 A 5.98 5.98 0 0 1 43.75 5.95 A 6.058 6.058 0 0 1 45.353 7.261 A 5.479 5.479 0 0 1 46.15 8.5 Q 46.9 10.1 46.9 12 Q 46.9 14.1 45.7 15.6 Q 44.5 17.1 41.8 17.6 A 116.813 116.813 0 0 0 34.706 19.222 Q 30.422 20.35 26.85 21.7 A 57.687 57.687 0 0 0 23.169 23.23 Q 21.304 24.087 19.786 24.98 A 23.396 23.396 0 0 0 17.1 26.8 Q 13.724 29.482 13.7 32.163 A 4.289 4.289 0 0 0 13.7 32.2 A 3.746 3.746 0 0 0 14.412 34.363 Q 15.021 35.244 16.15 36.05 A 24.115 24.115 0 0 0 18.192 37.349 Q 19.361 38.018 20.752 38.672 A 48.931 48.931 0 0 0 22.5 39.45 Q 26.4 41.1 30.75 43 Q 35.1 44.9 39 47.35 A 25.989 25.989 0 0 1 43.233 50.633 A 21.93 21.93 0 0 1 45.4 53.05 A 12.034 12.034 0 0 1 47.851 59.56 A 15.311 15.311 0 0 1 47.9 60.8 A 13.387 13.387 0 0 1 47.4 64.531 A 10.967 10.967 0 0 1 45.7 68 A 14.428 14.428 0 0 1 42.608 71.059 Q 41.188 72.109 39.407 72.973 A 24.19 24.19 0 0 1 39.35 73 Q 35.2 75 29.55 75.95 Q 23.9 76.9 16.9 76.9 A 36.988 36.988 0 0 1 12.278 76.632 Z M 178.819 101.761 A 11.871 11.871 0 0 1 175.65 100.751 A 10.67 10.67 0 0 1 173.538 99.406 A 8.293 8.293 0 0 1 171.8 97.45 Q 170.5 95.4 170.5 93 A 8.036 8.036 0 0 1 170.621 91.56 Q 170.767 90.762 171.088 90.131 A 3.96 3.96 0 0 1 171.65 89.3 A 3.79 3.79 0 0 1 174.322 88.014 A 5.238 5.238 0 0 1 174.7 88 A 5.744 5.744 0 0 1 175.536 88.059 A 4.78 4.78 0 0 1 176 88.15 Q 176.6 88.3 177.15 88.5 Q 177.7 88.7 178.35 88.9 A 4.208 4.208 0 0 0 178.991 89.041 Q 179.408 89.1 179.9 89.1 A 3.784 3.784 0 0 0 182.919 87.686 A 5.742 5.742 0 0 0 183.5 86.85 A 8.41 8.41 0 0 0 184.314 84.837 Q 184.8 83.046 184.8 80.6 Q 184.8 70.9 184 63.8 Q 183.2 56.7 182.2 51.4 A 982.611 982.611 0 0 1 181.29 46.512 Q 180.865 44.196 180.499 42.125 A 591.866 591.866 0 0 1 180.45 41.85 A 48.467 48.467 0 0 1 179.727 35.109 A 43.444 43.444 0 0 1 179.7 33.6 A 18.083 18.083 0 0 1 179.843 31.251 Q 180.203 28.506 181.477 26.928 A 5.685 5.685 0 0 1 181.5 26.9 A 5.869 5.869 0 0 1 185.807 24.721 A 8.228 8.228 0 0 1 186.4 24.7 Q 188.8 24.7 190.35 26.2 A 5.393 5.393 0 0 1 191.266 27.418 Q 191.983 28.677 192.475 30.685 A 24.227 24.227 0 0 1 192.7 31.7 Q 194.4 40.9 195.5 49.05 Q 196.6 57.2 197.1 65 Q 197.6 72.8 197.6 80.8 A 41.133 41.133 0 0 1 197.221 86.581 Q 196.8 89.538 195.913 91.935 A 16.736 16.736 0 0 1 193.3 96.65 A 13.856 13.856 0 0 1 183.152 101.945 A 18.746 18.746 0 0 1 181.7 102 A 16.5 16.5 0 0 1 178.819 101.761 Z M 460.4 77.1 Q 458.3 77.1 456.05 76.5 A 9.383 9.383 0 0 1 453.465 75.351 A 12.834 12.834 0 0 1 451.7 74 Q 450.017 72.478 448.624 69.864 A 25.328 25.328 0 0 1 447.95 68.5 A 25.236 25.236 0 0 1 446.822 65.512 Q 445.948 62.711 445.35 59 A 65.31 65.31 0 0 1 444.771 54.168 Q 444.4 49.8 444.4 44.3 Q 444.4 36.4 444.75 29.95 A 220.169 220.169 0 0 1 445.305 22.181 A 184.134 184.134 0 0 1 445.75 17.8 Q 446.4 12.1 447.3 6.6 A 19.679 19.679 0 0 1 447.749 4.742 Q 448.394 2.579 449.4 1.5 A 4.585 4.585 0 0 1 451.845 0.147 A 6.845 6.845 0 0 1 453.3 0 A 6.696 6.696 0 0 1 455.587 0.374 A 5.749 5.749 0 0 1 458.3 2.45 A 7.327 7.327 0 0 1 459.288 4.397 Q 459.955 6.321 460.074 9.205 A 31.454 31.454 0 0 1 460.1 10.5 A 55.093 55.093 0 0 1 459.977 14.103 A 68.922 68.922 0 0 1 459.75 16.75 A 446.043 446.043 0 0 1 459.376 20.195 Q 459.172 22.014 458.932 24.031 A 727.926 727.926 0 0 1 458.9 24.3 Q 458.4 28.5 458.05 33.85 A 152 152 0 0 0 457.811 38.867 Q 457.7 42.307 457.7 46.3 A 159.213 159.213 0 0 0 457.734 49.706 Q 457.807 53.097 458.035 55.492 A 45.61 45.61 0 0 0 458.05 55.65 A 50.245 50.245 0 0 0 458.28 57.613 Q 458.536 59.46 458.883 60.706 A 12.06 12.06 0 0 0 459 61.1 A 11.08 11.08 0 0 0 459.333 62.022 Q 459.705 62.914 460.142 63.402 A 2.274 2.274 0 0 0 460.4 63.65 A 3.095 3.095 0 0 0 461.119 64.095 A 2.443 2.443 0 0 0 462.1 64.3 A 10.987 10.987 0 0 0 462.686 64.286 Q 463.288 64.254 463.7 64.15 Q 464.3 64 464.8 63.85 A 3.545 3.545 0 0 1 465.491 63.719 A 4.405 4.405 0 0 1 465.9 63.7 Q 468.3 63.7 469.2 65.15 Q 470.034 66.494 470.095 68.482 A 10.361 10.361 0 0 1 470.1 68.8 A 8.136 8.136 0 0 1 469.689 71.423 A 7.242 7.242 0 0 1 468.8 73.2 Q 467.5 75.1 465.3 76.1 Q 463.1 77.1 460.4 77.1 Z M 100.256 76.423 Q 98.638 76.161 96.859 75.651 A 37.858 37.858 0 0 1 95.55 75.25 A 45.927 45.927 0 0 1 88.875 72.457 A 52.998 52.998 0 0 1 86.65 71.25 A 59.246 59.246 0 0 1 79.437 66.405 A 53.85 53.85 0 0 1 78.5 65.65 Q 74.8 62.6 72.5 59.3 A 15.83 15.83 0 0 1 71.191 57.079 Q 70.603 55.847 70.364 54.675 A 7.867 7.867 0 0 1 70.2 53.1 A 13.696 13.696 0 0 1 70.986 48.623 A 19.191 19.191 0 0 1 72.55 45.25 Q 74.9 41.2 78.65 37.55 Q 82.4 33.9 86.7 30.95 Q 91 28 95 26.3 Q 99 24.6 101.8 24.6 A 11.348 11.348 0 0 1 103.892 24.782 Q 105.082 25.005 106.023 25.504 A 5.955 5.955 0 0 1 107 26.15 A 4.955 4.955 0 0 1 108.676 28.852 Q 108.9 29.735 108.9 30.8 A 7.307 7.307 0 0 1 108.674 32.666 A 5.45 5.45 0 0 1 107.5 34.9 A 5.894 5.894 0 0 1 106.391 35.861 Q 104.913 36.875 102.3 37.7 Q 98.6 39 95.35 40.85 Q 92.1 42.7 89.6 44.65 A 30.264 30.264 0 0 0 87.88 46.092 Q 86.575 47.275 85.7 48.4 A 12.108 12.108 0 0 0 85.088 49.257 Q 84.527 50.125 84.365 50.793 A 2.166 2.166 0 0 0 84.3 51.3 Q 84.3 52.338 85.478 53.948 A 16.096 16.096 0 0 0 86.15 54.8 A 13.439 13.439 0 0 0 87.687 56.33 Q 89.354 57.761 91.932 59.253 A 44.593 44.593 0 0 0 92.1 59.35 Q 95.079 61.058 99.43 62.475 A 69.206 69.206 0 0 0 102.9 63.5 A 15.838 15.838 0 0 1 104.852 64.142 Q 107.108 65.063 108.15 66.5 A 7.91 7.91 0 0 1 109.215 68.485 A 6.55 6.55 0 0 1 109.6 70.7 A 7.639 7.639 0 0 1 109.373 72.614 A 5.504 5.504 0 0 1 108.05 75.05 A 4.949 4.949 0 0 1 105.783 76.404 Q 104.993 76.636 104.044 76.686 A 10.203 10.203 0 0 1 103.5 76.7 A 20.322 20.322 0 0 1 100.256 76.423 Z M 63.146 76.256 A 8.932 8.932 0 0 1 62.4 75.85 A 5.958 5.958 0 0 1 60.872 74.49 Q 59.975 73.388 59.3 71.7 Q 58.214 68.984 58.111 64.135 A 48.905 48.905 0 0 1 58.1 63.1 Q 58.1 59.2 58.8 52.8 Q 59.5 46.4 60.4 38.5 Q 61.3 30.6 61.8 22.3 Q 62.1 18.2 62.15 15.6 Q 62.2 13 62.2 11.3 A 48.726 48.726 0 0 0 62.186 10.096 Q 62.163 9.15 62.1 8.4 Q 62 7.2 62.1 5.9 A 7.984 7.984 0 0 1 62.379 4.03 A 5.611 5.611 0 0 1 63.75 1.6 Q 65.3 0 68 0 Q 70.8 0 72.5 2 A 7.165 7.165 0 0 1 73.503 3.604 Q 74.413 5.543 74.85 8.7 A 35.588 35.588 0 0 1 75.098 11.184 Q 75.379 15.368 75 21.5 Q 74.5 26.7 73.95 30.95 Q 73.4 35.2 72.9 38.8 Q 72.4 42.4 71.95 45.6 Q 71.5 48.8 71.25 51.9 A 79.191 79.191 0 0 0 71.001 57.889 A 86.641 86.641 0 0 0 71 58.3 A 104.123 104.123 0 0 0 71.035 61.078 Q 71.094 63.269 71.25 65.05 Q 71.5 67.9 71.5 71 A 11.346 11.346 0 0 1 71.393 72.614 Q 71.12 74.508 70.15 75.55 A 4.38 4.38 0 0 1 67.951 76.813 Q 67.247 76.989 66.412 77 A 8.487 8.487 0 0 1 66.3 77 A 7.19 7.19 0 0 1 63.146 76.256 Z M 484.752 76.846 Q 483.701 76.645 482.863 76.185 A 5.416 5.416 0 0 1 482.4 75.9 A 5.965 5.965 0 0 1 480.493 73.717 A 7.852 7.852 0 0 1 480.05 72.7 A 12.75 12.75 0 0 1 479.406 69.88 A 16.231 16.231 0 0 1 479.3 68 A 1595.181 1595.181 0 0 0 479.293 63.121 Q 479.287 61.211 479.277 59.506 A 781.067 781.067 0 0 0 479.25 56.3 Q 479.2 51.5 479.15 47.95 Q 479.1 44.4 479.05 41.3 Q 479 38.2 479 34.7 A 15.672 15.672 0 0 1 479.213 32.062 A 12.23 12.23 0 0 1 479.8 29.85 Q 480.6 27.7 482.5 26.4 A 7.163 7.163 0 0 1 484.993 25.34 Q 486.054 25.1 487.3 25.1 A 7.3 7.3 0 0 1 489.587 25.443 A 5.986 5.986 0 0 1 492.15 27.1 A 6.328 6.328 0 0 1 493.4 29.18 Q 494.042 30.872 494.1 33.3 Q 494.1 35.4 494 39.05 Q 493.9 42.7 493.75 47.2 Q 493.6 51.7 493.5 56.15 Q 493.4 60.6 493.3 64.4 Q 493.224 67.31 493.206 69.281 A 123.532 123.532 0 0 0 493.2 70.4 A 8.601 8.601 0 0 1 492.946 72.545 A 6.329 6.329 0 0 1 491.6 75.15 Q 490.275 76.683 487.646 76.946 A 11.517 11.517 0 0 1 486.5 77 A 9.334 9.334 0 0 1 484.752 76.846 Z M 184.428 17.749 A 9.977 9.977 0 0 1 180.1 15.6 A 8.728 8.728 0 0 1 178.169 13.295 A 7.573 7.573 0 0 1 177.2 9.5 A 8.336 8.336 0 0 1 177.552 7.018 A 6.524 6.524 0 0 1 179.7 3.85 A 8.844 8.844 0 0 1 183.638 2.032 A 12.498 12.498 0 0 1 186.1 1.8 A 11.433 11.433 0 0 1 188.547 2.05 A 8.363 8.363 0 0 1 191.35 3.2 A 10.102 10.102 0 0 1 193.509 5.064 A 8.789 8.789 0 0 1 194.6 6.65 A 9.018 9.018 0 0 1 195.655 10.013 A 8.658 8.658 0 0 1 195.7 10.9 A 7.08 7.08 0 0 1 194.865 14.192 A 9.856 9.856 0 0 1 193.85 15.75 A 5.63 5.63 0 0 1 191.291 17.549 Q 190.325 17.902 189.123 18.029 A 13.561 13.561 0 0 1 187.7 18.1 A 14.409 14.409 0 0 1 184.428 17.749 Z M 484.428 17.749 A 9.977 9.977 0 0 1 480.1 15.6 A 8.728 8.728 0 0 1 478.169 13.295 A 7.573 7.573 0 0 1 477.2 9.5 A 8.336 8.336 0 0 1 477.552 7.018 A 6.524 6.524 0 0 1 479.7 3.85 A 8.844 8.844 0 0 1 483.638 2.032 A 12.498 12.498 0 0 1 486.1 1.8 A 11.433 11.433 0 0 1 488.547 2.05 A 8.363 8.363 0 0 1 491.35 3.2 A 10.102 10.102 0 0 1 493.509 5.064 A 8.789 8.789 0 0 1 494.6 6.65 A 9.018 9.018 0 0 1 495.655 10.013 A 8.658 8.658 0 0 1 495.7 10.9 A 7.08 7.08 0 0 1 494.865 14.192 A 9.856 9.856 0 0 1 493.85 15.75 A 5.63 5.63 0 0 1 491.291 17.549 Q 490.325 17.902 489.123 18.029 A 13.561 13.561 0 0 1 487.7 18.1 A 14.409 14.409 0 0 1 484.428 17.749 Z" vector-effect="non-scaling-stroke"/></g></svg>