<svg width="81.472" height="32.64" viewBox="0 0 81.472 32.64" xmlns="http://www.w3.org/2000/svg"><g id="svgGroup" stroke-linecap="round" fill-rule="nonzero" font-size="9pt" stroke="#000" stroke-width="0.25mm" fill="#0f172a" style="stroke:#000;stroke-width:0.25mm;fill:#0f172a"><path d="M 3.592 24.512 Q 2.211 24.36 1.36 23.851 A 3.274 3.274 0 0 1 1.216 23.76 A 3.517 3.517 0 0 1 0.601 23.246 Q 0 22.602 0 21.792 Q 0 21.382 0.146 21.109 A 0.913 0.913 0 0 1 0.288 20.912 Q 0.52 20.667 0.961 20.619 A 2.088 2.088 0 0 1 1.184 20.608 A 3.639 3.639 0 0 1 1.515 20.622 Q 1.675 20.637 1.814 20.667 A 1.984 1.984 0 0 1 1.904 20.688 Q 2.208 20.768 2.544 20.864 Q 2.801 20.938 3.134 21.002 A 10.763 10.763 0 0 0 3.344 21.04 A 4.767 4.767 0 0 0 3.717 21.088 Q 3.914 21.106 4.141 21.114 A 10.716 10.716 0 0 0 4.512 21.12 Q 5.97 21.12 7.132 21.002 A 17.435 17.435 0 0 0 7.504 20.96 A 15.507 15.507 0 0 0 8.553 20.796 Q 9.042 20.701 9.468 20.58 A 8.547 8.547 0 0 0 9.744 20.496 A 8.915 8.915 0 0 0 10.518 20.209 Q 10.924 20.035 11.264 19.834 A 5.363 5.363 0 0 0 11.36 19.776 A 2.082 2.082 0 0 0 10.913 18.915 Q 10.669 18.625 10.304 18.368 A 9.228 9.228 0 0 0 9.468 17.848 Q 8.88 17.522 8.16 17.216 A 327.155 327.155 0 0 1 5.859 16.227 A 359.961 359.961 0 0 1 5.52 16.08 A 19.885 19.885 0 0 1 3.2 14.889 A 18.198 18.198 0 0 1 2.976 14.752 Q 1.792 14.016 1.04 12.976 A 3.956 3.956 0 0 1 0.319 11.065 A 5.087 5.087 0 0 1 0.288 10.496 Q 0.288 8.896 1.2 7.52 A 9.639 9.639 0 0 1 2.873 5.618 A 11.554 11.554 0 0 1 3.584 5.04 Q 5.056 3.936 6.752 3.168 A 21.44 21.44 0 0 1 9.021 2.287 A 18.219 18.219 0 0 1 10.064 1.984 Q 11.301 1.666 12.285 1.591 A 7.659 7.659 0 0 1 12.864 1.568 A 3.745 3.745 0 0 1 13.334 1.596 Q 13.779 1.652 14.08 1.824 A 1.677 1.677 0 0 1 14.454 2.11 A 1.383 1.383 0 0 1 14.72 2.496 Q 14.912 2.912 14.912 3.424 A 1.74 1.74 0 0 1 14.84 3.936 A 1.436 1.436 0 0 1 14.56 4.448 A 1.344 1.344 0 0 1 14.195 4.744 Q 14.017 4.845 13.789 4.92 A 3.424 3.424 0 0 1 13.376 5.024 A 31.74 31.74 0 0 0 10.956 5.564 Q 9.501 5.953 8.304 6.448 A 16.546 16.546 0 0 0 6.958 7.072 Q 5.786 7.686 5.04 8.368 A 4.691 4.691 0 0 0 4.466 8.99 Q 4.18 9.366 4.04 9.749 A 2.155 2.155 0 0 0 3.904 10.496 A 1.425 1.425 0 0 0 4.223 11.387 Q 4.414 11.634 4.72 11.856 A 8.633 8.633 0 0 0 5.457 12.332 Q 5.827 12.547 6.259 12.757 A 16.461 16.461 0 0 0 6.8 13.008 Q 8.064 13.568 9.488 14.16 Q 10.912 14.752 12.176 15.52 A 8.481 8.481 0 0 1 13.449 16.458 A 6.885 6.885 0 0 1 14.24 17.296 Q 15.04 18.304 15.04 19.712 Q 15.04 20.928 14.272 21.856 Q 13.526 22.758 12.205 23.342 A 8.076 8.076 0 0 1 12.128 23.376 A 11.68 11.68 0 0 1 10.633 23.896 Q 9.824 24.12 8.896 24.272 A 22.941 22.941 0 0 1 6.515 24.53 A 28.577 28.577 0 0 1 4.864 24.576 A 11.687 11.687 0 0 1 3.592 24.512 Z" id="0"/><path d="M 31.533 24.423 Q 30.868 24.309 30.112 24.048 A 15.8 15.8 0 0 1 28.241 23.259 A 18.873 18.873 0 0 1 27.376 22.8 Q 25.984 22.016 24.816 21.04 Q 23.648 20.064 22.944 19.008 Q 22.24 17.952 22.24 16.96 A 4.107 4.107 0 0 1 22.468 15.639 Q 22.64 15.131 22.94 14.61 A 6.946 6.946 0 0 1 22.96 14.576 A 11.299 11.299 0 0 1 24.029 13.061 A 13.999 13.999 0 0 1 24.832 12.176 Q 25.984 11.008 27.312 10.064 Q 28.64 9.12 29.888 8.576 Q 31.108 8.045 31.93 8.032 A 2.588 2.588 0 0 1 31.968 8.032 Q 32.666 8.032 33.134 8.303 A 1.623 1.623 0 0 1 33.344 8.448 Q 33.856 8.864 33.856 9.632 A 1.959 1.959 0 0 1 33.779 10.193 A 1.568 1.568 0 0 1 33.44 10.8 Q 33.063 11.22 32.162 11.549 A 7.46 7.46 0 0 1 31.968 11.616 Q 30.784 12.032 29.712 12.688 A 15.164 15.164 0 0 0 28.373 13.606 A 12.819 12.819 0 0 0 27.792 14.08 A 10.95 10.95 0 0 0 27.164 14.668 Q 26.749 15.089 26.464 15.488 Q 25.984 16.16 25.984 16.576 A 1.025 1.025 0 0 0 26.042 16.897 Q 26.138 17.186 26.393 17.553 A 5.593 5.593 0 0 0 26.608 17.84 Q 27.027 18.367 27.772 18.915 A 12.05 12.05 0 0 0 28.576 19.456 A 10.336 10.336 0 0 0 29.795 20.095 Q 30.778 20.535 32.032 20.896 Q 33.077 21.183 33.546 21.609 A 1.386 1.386 0 0 1 33.728 21.808 A 2.233 2.233 0 0 1 34.02 22.325 A 1.772 1.772 0 0 1 34.144 22.976 Q 34.144 23.68 33.744 24.096 Q 33.344 24.512 32.512 24.512 A 5.795 5.795 0 0 1 31.533 24.423 Z M 19.962 24.36 A 2.382 2.382 0 0 1 19.792 24.256 Q 19.264 23.904 18.944 22.96 Q 18.624 22.016 18.624 20.288 A 18.042 18.042 0 0 1 18.647 19.41 Q 18.699 18.358 18.864 16.928 Q 19.104 14.848 19.408 12.288 Q 19.712 9.728 19.968 7.072 Q 20.111 5.784 20.165 4.944 A 21.105 21.105 0 0 0 20.176 4.752 Q 20.219 3.965 20.224 3.447 A 13.571 13.571 0 0 0 20.224 3.328 L 20.224 2.384 Q 20.224 1.984 20.288 1.536 Q 20.315 0.921 20.61 0.54 A 1.298 1.298 0 0 1 20.736 0.4 Q 21.152 0 21.856 0 Q 22.607 0 23.052 0.581 A 1.822 1.822 0 0 1 23.072 0.608 Q 23.45 1.121 23.6 2.262 A 9.88 9.88 0 0 1 23.648 2.704 Q 23.776 4.192 23.52 6.848 A 188.345 188.345 0 0 1 23.327 8.421 Q 23.236 9.14 23.147 9.786 A 110.579 110.579 0 0 1 23.088 10.208 Q 22.894 11.582 22.728 12.692 A 209.85 209.85 0 0 1 22.704 12.848 Q 22.528 14.016 22.4 15.04 Q 22.272 16.064 22.192 17.056 Q 22.112 18.048 22.112 19.136 A 28.29 28.29 0 0 0 22.127 20.092 Q 22.142 20.528 22.171 20.915 A 15.935 15.935 0 0 0 22.192 21.168 Q 22.272 22.048 22.272 22.944 A 3.369 3.369 0 0 1 22.244 23.393 Q 22.176 23.902 21.938 24.187 A 1.003 1.003 0 0 1 21.92 24.208 Q 21.576 24.599 20.925 24.608 A 2.222 2.222 0 0 1 20.896 24.608 A 1.907 1.907 0 0 1 19.962 24.36 Z" id="1"/><path d="M 48.448 15.456 L 49.696 16.448 Q 49.232 17.962 48.675 19.038 A 9.041 9.041 0 0 1 48.32 19.664 A 10.295 10.295 0 0 1 47.692 20.567 Q 47.217 21.173 46.72 21.584 A 6.178 6.178 0 0 1 46.052 22.069 Q 45.69 22.295 45.338 22.431 A 3.411 3.411 0 0 1 45.104 22.512 A 5.662 5.662 0 0 1 44.27 22.703 A 4.5 4.5 0 0 1 43.616 22.752 A 6.195 6.195 0 0 1 41.952 22.538 A 4.98 4.98 0 0 1 40.336 21.76 A 5.193 5.193 0 0 1 39.095 20.448 Q 38.699 19.86 38.39 19.117 A 9.8 9.8 0 0 1 38.224 18.688 Q 37.472 16.608 37.472 13.312 Q 37.472 11.476 37.649 10.381 A 6.879 6.879 0 0 1 37.728 9.968 Q 37.936 9.045 38.281 8.619 A 1.201 1.201 0 0 1 38.448 8.448 Q 38.912 8.064 39.488 8.064 A 2.958 2.958 0 0 1 39.933 8.096 Q 40.165 8.131 40.354 8.206 A 1.411 1.411 0 0 1 40.608 8.336 A 1.392 1.392 0 0 1 41.048 8.808 A 1.986 1.986 0 0 1 41.216 9.184 Q 41.408 9.76 41.344 10.624 Q 41.28 12.352 41.264 13.904 A 22.969 22.969 0 0 0 41.263 14.141 Q 41.263 15.55 41.44 16.672 A 7.046 7.046 0 0 0 41.604 17.444 Q 41.708 17.821 41.848 18.128 A 3.103 3.103 0 0 0 42.096 18.576 Q 42.528 19.217 43.308 19.261 A 2.071 2.071 0 0 0 43.424 19.264 A 2.479 2.479 0 0 0 45.007 18.686 Q 45.36 18.404 45.68 17.984 A 7.791 7.791 0 0 0 46.441 16.748 Q 46.755 16.121 47.018 15.368 A 15.709 15.709 0 0 0 47.28 14.544 A 25.385 25.385 0 0 0 47.876 11.957 A 32.907 32.907 0 0 0 48.192 9.728 Q 48.266 8.993 48.452 8.624 A 0.951 0.951 0 0 1 48.576 8.432 Q 48.788 8.185 49.226 8.12 A 2.328 2.328 0 0 1 49.568 8.096 Q 50.016 8.096 50.432 8.272 A 1.621 1.621 0 0 1 51.053 8.74 A 1.98 1.98 0 0 1 51.136 8.848 A 2.185 2.185 0 0 1 51.36 9.247 Q 51.447 9.445 51.513 9.681 A 4.232 4.232 0 0 1 51.568 9.904 A 3.617 3.617 0 0 1 51.637 10.364 Q 51.681 10.865 51.616 11.488 A 30.82 30.82 0 0 0 51.525 12.623 Q 51.483 13.317 51.483 13.919 A 15.856 15.856 0 0 0 51.488 14.336 Q 51.52 15.552 51.648 16.624 Q 51.776 17.696 51.936 18.8 Q 52.096 19.904 52.224 21.248 Q 52.352 22.592 52.352 24.448 A 14.24 14.24 0 0 1 52.255 26.16 Q 52.149 27.027 51.931 27.774 A 8.19 8.19 0 0 1 51.824 28.112 A 8.046 8.046 0 0 1 51.215 29.488 A 6.169 6.169 0 0 1 50.352 30.672 Q 49.408 31.68 48.128 32.16 A 7.572 7.572 0 0 1 46.156 32.602 A 9.187 9.187 0 0 1 45.312 32.64 Q 43.646 32.64 42.383 32.396 A 9.238 9.238 0 0 1 41.648 32.224 Q 40.63 31.939 39.964 31.512 A 3.365 3.365 0 0 1 39.424 31.088 A 2.457 2.457 0 0 1 38.866 30.287 A 2.317 2.317 0 0 1 38.688 29.376 A 1.878 1.878 0 0 1 38.732 28.96 Q 38.799 28.662 38.972 28.445 A 1.16 1.16 0 0 1 39.04 28.368 A 1.107 1.107 0 0 1 39.509 28.082 Q 39.763 28 40.096 28 A 2.177 2.177 0 0 1 40.6 28.057 A 1.855 1.855 0 0 1 40.912 28.16 Q 41.165 28.27 41.479 28.41 A 92.533 92.533 0 0 1 41.776 28.544 Q 42.272 28.768 43.088 28.928 A 7.191 7.191 0 0 0 43.708 29.019 Q 44.355 29.088 45.216 29.088 A 5.722 5.722 0 0 0 46.075 29.028 Q 46.519 28.96 46.881 28.817 A 2.629 2.629 0 0 0 47.424 28.528 A 2.939 2.939 0 0 0 48.385 27.384 A 3.855 3.855 0 0 0 48.576 26.912 Q 48.928 25.856 48.928 24.448 Q 48.928 23.424 48.864 22.512 Q 48.8 21.6 48.72 20.608 Q 48.64 19.616 48.56 18.368 Q 48.505 17.51 48.473 16.456 A 87.791 87.791 0 0 1 48.448 15.456 Z" id="2"/><path d="M 55.849 32.55 Q 55.266 32.465 54.8 32.256 Q 54.016 31.904 53.6 31.312 Q 53.184 30.72 53.184 30.048 A 2.156 2.156 0 0 1 53.217 29.659 Q 53.289 29.266 53.52 29.024 A 1.117 1.117 0 0 1 54.334 28.673 A 1.465 1.465 0 0 1 54.368 28.672 A 1.415 1.415 0 0 1 54.639 28.697 A 1.149 1.149 0 0 1 54.832 28.752 Q 55.04 28.832 55.248 28.928 Q 55.456 29.024 55.696 29.088 A 1.784 1.784 0 0 0 55.939 29.134 Q 56.086 29.152 56.256 29.152 A 1.337 1.337 0 0 0 57.33 28.654 A 1.957 1.957 0 0 0 57.536 28.352 Q 57.975 27.568 57.984 26.108 A 9.954 9.954 0 0 0 57.984 26.048 Q 57.984 23.427 57.853 21.368 A 44.976 44.976 0 0 0 57.76 20.16 Q 57.536 17.696 57.216 15.92 Q 56.996 14.699 56.806 13.69 A 193.96 193.96 0 0 0 56.64 12.816 Q 56.384 11.488 56.384 10.368 A 4.346 4.346 0 0 1 56.427 9.736 Q 56.474 9.413 56.575 9.154 A 1.679 1.679 0 0 1 56.896 8.624 A 1.731 1.731 0 0 1 57.454 8.209 A 1.639 1.639 0 0 1 58.144 8.064 A 1.948 1.948 0 0 1 58.674 8.133 A 1.497 1.497 0 0 1 59.296 8.48 Q 59.672 8.829 59.868 9.743 A 6.91 6.91 0 0 1 59.936 10.112 A 122.343 122.343 0 0 1 60.557 13.944 A 104.167 104.167 0 0 1 60.784 15.6 Q 61.12 18.208 61.296 20.736 A 74.711 74.711 0 0 1 61.471 25.617 A 81.638 81.638 0 0 1 61.472 25.952 Q 61.472 29.248 60.16 30.928 A 4.336 4.336 0 0 1 58.667 32.175 Q 57.82 32.595 56.772 32.608 A 5.421 5.421 0 0 1 56.704 32.608 A 5.945 5.945 0 0 1 55.849 32.55 Z M 57.565 5.498 A 2.948 2.948 0 0 1 56.416 4.88 A 2.67 2.67 0 0 1 55.857 4.219 A 2.227 2.227 0 0 1 55.552 3.072 A 2.403 2.403 0 0 1 55.664 2.322 A 1.947 1.947 0 0 1 56.256 1.44 Q 56.96 0.832 58.048 0.832 A 3.227 3.227 0 0 1 58.807 0.918 A 2.483 2.483 0 0 1 59.584 1.248 A 2.849 2.849 0 0 1 60.398 2.035 A 2.743 2.743 0 0 1 60.56 2.304 A 3.011 3.011 0 0 1 60.822 2.984 A 2.503 2.503 0 0 1 60.896 3.584 Q 60.896 4.32 60.368 4.976 Q 59.949 5.497 59.076 5.604 A 3.97 3.97 0 0 1 58.592 5.632 A 3.766 3.766 0 0 1 57.565 5.498 Z" id="3"/><path d="M 71.062 24.352 A 8.6 8.6 0 0 1 69.152 23.6 Q 67.168 22.528 66.032 20.656 A 7.855 7.855 0 0 1 64.939 17.281 A 9.763 9.763 0 0 1 64.896 16.352 A 7.789 7.789 0 0 1 65.29 13.856 A 7.259 7.259 0 0 1 65.568 13.152 A 9.575 9.575 0 0 1 66.964 10.93 A 8.877 8.877 0 0 1 67.28 10.576 Q 68.32 9.472 69.456 8.864 Q 70.592 8.256 71.488 8.256 A 2.33 2.33 0 0 1 71.919 8.294 A 1.871 1.871 0 0 1 72.24 8.384 A 1.279 1.279 0 0 1 72.548 8.55 A 1.068 1.068 0 0 1 72.768 8.768 A 0.88 0.88 0 0 1 72.906 9.05 Q 72.96 9.234 72.96 9.472 A 3.497 3.497 0 0 1 72.886 10.206 A 2.713 2.713 0 0 1 72.624 10.928 A 1.775 1.775 0 0 1 72.247 11.397 Q 71.88 11.731 71.264 12 Q 70.336 12.512 69.712 13.168 A 4.701 4.701 0 0 0 68.911 14.295 A 4.354 4.354 0 0 0 68.768 14.608 A 4.366 4.366 0 0 0 68.459 15.977 A 5.16 5.16 0 0 0 68.448 16.32 Q 68.448 18.656 69.824 20.064 A 4.562 4.562 0 0 0 72.249 21.348 A 6.668 6.668 0 0 0 73.568 21.472 A 4.373 4.373 0 0 0 75.157 21.193 A 3.926 3.926 0 0 0 76.768 20.016 A 5.032 5.032 0 0 0 77.783 17.954 Q 77.984 17.135 77.984 16.16 A 7.261 7.261 0 0 0 77.859 14.772 Q 77.699 13.951 77.334 13.307 A 3.963 3.963 0 0 0 76.928 12.72 Q 75.872 11.456 74.112 11.456 Q 73.184 11.456 72.608 11.84 Q 72.113 12.17 71.571 12.689 A 11.444 11.444 0 0 0 71.392 12.864 A 16.908 16.908 0 0 0 71.072 13.193 Q 70.809 13.471 70.624 13.696 A 3.93 3.93 0 0 1 70.41 13.938 Q 70.295 14.057 70.182 14.15 A 2.022 2.022 0 0 1 70.064 14.24 Q 69.827 14.408 69.455 14.429 A 1.941 1.941 0 0 1 69.344 14.432 A 1.269 1.269 0 0 1 68.95 14.373 A 1.041 1.041 0 0 1 68.512 14.096 A 0.923 0.923 0 0 1 68.33 13.803 Q 68.192 13.463 68.192 12.896 A 2.765 2.765 0 0 1 68.342 12.018 Q 68.46 11.663 68.672 11.296 A 6.101 6.101 0 0 1 69.608 10.074 A 7.133 7.133 0 0 1 69.936 9.76 Q 70.72 9.056 71.712 8.624 A 5.04 5.04 0 0 1 73.528 8.196 A 4.836 4.836 0 0 1 73.728 8.192 A 10.124 10.124 0 0 1 75.705 8.376 A 7.306 7.306 0 0 1 77.888 9.168 Q 79.616 10.144 80.544 11.936 Q 81.472 13.728 81.472 16.16 A 9.692 9.692 0 0 1 81.092 18.913 A 8.543 8.543 0 0 1 80.448 20.496 Q 79.424 22.432 77.664 23.552 Q 75.904 24.672 73.664 24.672 A 10.204 10.204 0 0 1 71.062 24.352 Z" id="4"/></g></svg>